<svg width="489" height="489" viewBox="0 0 489 489" fill="none" xmlns="http://www.w3.org/2000/svg">
<g clip-path="url(#clip0_6_24)">
<rect width="489" height="489" rx="48" fill="white"/>
<rect width="489" height="489" fill="#0D0D0D"/>
<circle cx="340.187" cy="296.801" r="26.9416" fill="#FF3E3E" stroke="white" stroke-width="2"/>
<path d="M163.384 228.079H135.763V225.035H139.243C140.838 225.035 142.034 224.781 142.831 224.273C143.629 223.693 144.1 223.113 144.245 222.533C144.39 221.953 144.463 221.12 144.463 220.032V190.888H102.269V220.032C102.269 221.627 102.596 222.86 103.248 223.73C103.9 224.6 105.314 225.035 107.489 225.035H111.621V228.079H84V225.035H87.6974C89.8723 225.035 91.286 224.6 91.9384 223.73C92.5909 222.86 92.9171 221.627 92.9171 220.032V160.005C92.9171 158.41 92.5909 157.177 91.9384 156.307C91.286 155.437 89.8723 155.002 87.6974 155.002H84V151.957H111.621V155.002H107.489C105.314 155.002 103.9 155.437 103.248 156.307C102.596 157.177 102.269 158.41 102.269 160.005V186.104H144.463V160.005C144.463 158.917 144.39 158.083 144.245 157.503C144.1 156.923 143.629 156.38 142.831 155.872C142.034 155.292 140.838 155.002 139.243 155.002H135.763V151.957H163.384V155.002H159.252C157.657 155.002 156.461 155.292 155.663 155.872C154.866 156.38 154.395 156.923 154.25 157.503C154.105 158.083 154.032 158.917 154.032 160.005V220.032C154.032 221.12 154.105 221.953 154.25 222.533C154.395 223.113 154.866 223.693 155.663 224.273C156.461 224.781 157.657 225.035 159.252 225.035H163.384V228.079Z" fill="white"/>
<path d="M200.529 230.254C191.032 230.254 183.093 226.593 176.713 219.271C170.406 211.949 167.252 203.503 167.252 193.933C167.252 187.988 168.557 182.261 171.167 176.751C173.777 171.242 177.112 166.566 181.172 162.723C185.304 158.881 189.835 155.8 194.765 153.48C199.767 151.16 204.588 150 209.228 150C218.653 150 226.555 153.661 232.935 160.983C239.315 168.306 242.504 176.751 242.504 186.321C242.504 193.426 240.583 200.386 236.741 207.2C232.899 213.942 227.679 219.488 221.082 223.838C214.557 228.116 207.706 230.254 200.529 230.254ZM207.271 221.99C215.173 221.99 221.807 219.09 227.171 213.29C232.609 207.49 235.327 200.313 235.327 191.758C235.327 183.204 232.174 175.519 225.866 168.704C219.632 161.89 212.056 158.482 203.139 158.482C195.526 158.482 188.82 161.237 183.021 166.747C177.293 172.184 174.43 178.709 174.43 186.321C174.43 196.181 177.438 204.59 183.456 211.55C189.545 218.51 197.484 221.99 207.271 221.99Z" fill="white"/>
<path d="M292.927 226.992C292.854 226.992 292.673 226.992 292.383 226.992C292.093 226.992 290.969 227.717 289.012 229.167L264 163.702L258.781 220.685C258.636 221.845 259.179 222.823 260.412 223.621C261.644 224.418 263.348 224.817 265.523 224.817H270.09V228.079H243.991V224.817H247.471C251.676 224.817 253.923 223.222 254.213 220.032L259.651 160.005C259.796 158.627 259.288 157.503 258.128 156.633C257.041 155.691 255.301 155.22 252.908 155.22H249.429V151.957H269.873L293.144 213.29L316.633 151.957H336.208V155.002H331.858C328.378 155.002 326.638 156.343 326.638 159.026C326.638 159.243 326.638 159.497 326.638 159.787L331.64 220.032C331.785 221.7 332.184 222.932 332.836 223.73C333.561 224.455 334.83 224.817 336.643 224.817H340.992V228.079H313.153V224.817H316.851C318.881 224.817 320.258 224.491 320.983 223.838C321.708 223.186 322.071 222.497 322.071 221.772C322.071 220.975 322.071 220.395 322.071 220.032L317.286 163.049L292.927 226.992Z" fill="white"/>
<path d="M401.209 228.079H342.921V225.035H346.618C348.721 225.035 350.098 224.636 350.751 223.838C351.476 223.041 351.838 221.772 351.838 220.032V160.005C351.838 158.555 351.367 157.358 350.424 156.416C349.554 155.474 348.286 155.002 346.618 155.002H342.921V151.957H400.339L401.209 166.964L398.164 167.617C398.164 165.007 397.112 162.506 395.01 160.113C392.908 157.721 389.971 156.525 386.202 156.525H366.41C364.235 156.525 362.821 156.96 362.169 157.83C361.516 158.627 361.19 159.787 361.19 161.31V186.104H382.939C384.027 186.104 384.86 186.067 385.44 185.995C386.02 185.85 386.528 185.451 386.963 184.799C387.47 184.146 387.724 183.204 387.724 181.971V176.969H390.986V199.588H387.724V195.021C387.724 193.208 387.325 192.048 386.528 191.541C385.73 190.961 384.534 190.671 382.939 190.671H361.19V218.727C361.19 220.25 361.516 221.446 362.169 222.316C362.821 223.113 364.235 223.512 366.41 223.512H387.072C390.914 223.512 394.285 222.28 397.185 219.815C400.157 217.35 401.716 214.957 401.861 212.638L404.906 213.072L401.209 228.079Z" fill="white"/>
<path d="M100.747 260.703L121.409 259.616C127.788 259.616 133.008 260.957 137.068 263.639C141.128 266.322 143.158 269.983 143.158 274.623C143.158 281.075 141.418 286.331 137.938 290.391C134.458 294.451 130.181 297.532 125.106 299.634L142.723 326.168C143.448 327.328 144.825 328.887 146.855 330.844C148.957 332.801 150.842 333.78 152.51 333.78H154.467V336.825H138.373C138.59 336.825 137.902 335.738 136.307 333.563C134.712 331.388 133.806 330.083 133.588 329.648L115.536 301.809C114.811 301.954 113.361 302.026 111.186 302.026C109.012 302.026 107.272 301.954 105.967 301.809L105.097 297.459C106.112 297.604 108.287 297.677 111.621 297.677C114.956 297.677 118.291 297.242 121.626 296.372C124.961 295.502 127.897 293.871 130.434 291.478C132.972 289.013 134.241 285.86 134.241 282.017C134.241 271.288 127.353 265.923 113.579 265.923L102.269 266.358V328.778C102.269 329.865 102.342 330.699 102.487 331.279C102.632 331.859 103.103 332.439 103.9 333.019C104.698 333.526 105.894 333.78 107.489 333.78H111.621V336.825H84V333.78H87.4799C89.0748 333.78 90.271 333.526 91.0685 333.019C91.8659 332.439 92.3372 331.859 92.4822 331.279C92.6272 330.699 92.6997 329.865 92.6997 328.778V268.75C92.6997 267.083 92.3372 265.887 91.6122 265.162C90.9597 264.364 89.5823 263.965 87.4799 263.965H84V260.703H100.747Z" fill="white"/>
<path d="M214.718 336.825H156.431V333.78H160.128C162.23 333.78 163.608 333.381 164.26 332.584C164.985 331.787 165.348 330.518 165.348 328.778V268.75C165.348 267.3 164.876 266.104 163.934 265.162C163.064 264.219 161.795 263.748 160.128 263.748H156.431V260.703H213.848L214.718 275.71L211.673 276.362C211.673 273.753 210.622 271.251 208.52 268.859C206.417 266.467 203.481 265.27 199.711 265.27H179.92C177.745 265.27 176.331 265.705 175.679 266.575C175.026 267.373 174.7 268.533 174.7 270.055V294.849H196.449C197.536 294.849 198.37 294.813 198.95 294.741C199.53 294.596 200.038 294.197 200.473 293.544C200.98 292.892 201.234 291.949 201.234 290.717V285.715H204.496V308.334H201.234V303.766C201.234 301.954 200.835 300.794 200.038 300.287C199.24 299.707 198.044 299.417 196.449 299.417H174.7V327.473C174.7 328.995 175.026 330.192 175.679 331.062C176.331 331.859 177.745 332.258 179.92 332.258H200.581C204.424 332.258 207.795 331.025 210.695 328.56C213.667 326.096 215.226 323.703 215.371 321.383L218.416 321.818L214.718 336.825Z" fill="white"/>
<path d="M287.105 315.511L289.715 319.426C283.842 326.096 277.97 331.025 272.098 334.215C266.225 337.405 259.918 339 253.176 339C244.839 339 237.408 335.339 230.883 328.017C224.431 320.694 221.205 312.394 221.205 303.114C221.205 291.442 225.591 281.147 234.363 272.23C243.208 263.241 253.466 258.746 265.138 258.746C269.778 258.746 275.578 259.906 282.537 262.226L281.232 277.45H277.535C277.535 274.768 276.629 272.665 274.816 271.143C273.004 269.62 270.938 268.678 268.618 268.315C266.37 267.88 263.543 267.663 260.136 267.663C251.726 267.663 244.404 270.128 238.169 275.058C231.934 279.987 228.817 286.73 228.817 295.284C228.817 301.519 229.977 307.065 232.297 311.922C234.617 316.78 237.517 320.513 240.996 323.123C247.884 328.198 254.481 330.735 260.788 330.735C264.703 330.735 269.053 329.467 273.838 326.929C278.622 324.392 283.045 320.586 287.105 315.511Z" fill="white"/>
</g>
<defs>
<clipPath id="clip0_6_24">
<rect width="489" height="489" rx="48" fill="white"/>
</clipPath>
</defs>
</svg>
